<svg width="16" height="16" viewBox="0 0 16 16" fill="none" xmlns="http://www.w3.org/2000/svg">
<path d="M6.00001 9.94466V10.3333C6.00001 11.129 6.31608 11.892 6.87869 12.4546C7.4413 13.0173 8.20436 13.3333 9.00001 13.3333C9.79566 13.3333 10.5587 13.0173 11.1213 12.4546C11.6839 11.892 12 11.129 12 10.3333V9.21999C11.555 9.06272 11.1799 8.7532 10.9411 8.34612C10.7023 7.93905 10.615 7.46065 10.6948 6.99547C10.7746 6.53029 11.0163 6.1083 11.3771 5.80408C11.7379 5.49986 12.1947 5.333 12.6667 5.333C13.1386 5.333 13.5954 5.49986 13.9563 5.80408C14.3171 6.1083 14.5588 6.53029 14.6386 6.99547C14.7183 7.46065 14.6311 7.93905 14.3922 8.34612C14.1534 8.7532 13.7783 9.06272 13.3333 9.21999V10.3333C13.3333 11.4826 12.8768 12.5848 12.0641 13.3975C11.2515 14.2101 10.1493 14.6667 9.00001 14.6667C7.85074 14.6667 6.74854 14.2101 5.93588 13.3975C5.12322 12.5848 4.66668 11.4826 4.66668 10.3333V9.94466C3.73463 9.78685 2.88855 9.30414 2.27841 8.5821C1.66827 7.86005 1.33346 6.94531 1.33334 5.99999L1.33334 2.66666C1.33334 2.31304 1.47382 1.9739 1.72387 1.72385C1.97392 1.4738 2.31305 1.33333 2.66668 1.33333H3.33334C3.51015 1.33333 3.67972 1.40357 3.80475 1.52859C3.92977 1.65361 4.00001 1.82318 4.00001 1.99999C4.00001 2.17681 3.92977 2.34638 3.80475 2.4714C3.67972 2.59642 3.51015 2.66666 3.33334 2.66666H2.66668V5.99999C2.66668 6.70724 2.94763 7.38552 3.44773 7.88561C3.94782 8.38571 4.6261 8.66666 5.33334 8.66666C6.04059 8.66666 6.71886 8.38571 7.21896 7.88561C7.71906 7.38552 8.00001 6.70724 8.00001 5.99999V2.66666H7.33334C7.15653 2.66666 6.98696 2.59642 6.86194 2.4714C6.73691 2.34638 6.66668 2.17681 6.66668 1.99999C6.66668 1.82318 6.73691 1.65361 6.86194 1.52859C6.98696 1.40357 7.15653 1.33333 7.33334 1.33333H8.00001C8.35363 1.33333 8.69277 1.4738 8.94282 1.72385C9.19287 1.9739 9.33334 2.31304 9.33334 2.66666V5.99999C9.33322 6.94531 8.99842 7.86005 8.38828 8.5821C7.77813 9.30414 6.93206 9.78685 6.00001 9.94466ZM12.6667 7.99999C12.8435 7.99999 13.0131 7.92976 13.1381 7.80473C13.2631 7.67971 13.3333 7.51014 13.3333 7.33333C13.3333 7.15652 13.2631 6.98695 13.1381 6.86192C13.0131 6.7369 12.8435 6.66666 12.6667 6.66666C12.4899 6.66666 12.3203 6.7369 12.1953 6.86192C12.0702 6.98695 12 7.15652 12 7.33333C12 7.51014 12.0702 7.67971 12.1953 7.80473C12.3203 7.92976 12.4899 7.99999 12.6667 7.99999Z" fill="black"/>
</svg>
