<svg width="16" height="16" viewBox="0 0 16 16" fill="none" xmlns="http://www.w3.org/2000/svg">
<g clip-path="url(#clip0_10_5189)">
<path d="M16 5C16 2.23825 13.7618 0 11 0C9.63775 0 8.40625 0.54775 7.505 1.43075L7.5 1.42575L1.46975 7.46C0.5625 8.36525 0 9.61625 0 11C0 13.7618 2.23825 16 5 16C6.38375 16 7.63475 15.4375 8.54 14.5302L14.5743 8.5L14.5693 8.495C15.4523 7.59375 16 6.36125 16 5ZM8.186 14.1772C7.335 15.0302 6.20325 15.5 5 15.5C2.51875 15.5 0.5 13.4815 0.5 11C0.5 9.79675 0.96975 8.665 1.8235 7.8135L4.641 4.9945L11.006 11.3595L8.186 14.1772ZM11.3595 11.0057L4.99425 4.6405C4.99425 4.6405 7.83575 1.80625 7.85475 1.78775C8.70275 0.9575 9.8195 0.5 11 0.5C13.4812 0.5 15.5 2.5185 15.5 5C15.5 6.18025 15.0427 7.29725 14.2122 8.14525C14.1937 8.164 11.3595 11.0057 11.3595 11.0057Z" fill="black"/>
<path d="M11 1.5C10.8618 1.5 10.75 1.61175 10.75 1.75C10.75 1.88825 10.8618 2 11 2C12.6567 2 14 3.34325 14 5C14 5.13825 14.1118 5.25 14.25 5.25C14.3882 5.25 14.5 5.13825 14.5 5C14.5 3.067 12.933 1.5 11 1.5Z" fill="black"/>
</g>
<defs>
<clipPath id="clip0_10_5189">
<rect width="16" height="16" fill="white"/>
</clipPath>
</defs>
</svg>
