<svg width="35" height="35" viewBox="0 0 35 35" fill="none" xmlns="http://www.w3.org/2000/svg">
<g clip-path="url(#clip0_28_68)">
<path d="M35 10.9375C35 4.89617 30.1038 0 24.0625 0C21.0826 0 18.3887 1.1982 16.4172 3.12977L16.4062 3.11883L3.21508 16.3188C1.23047 18.299 0 21.0355 0 24.0625C0 30.1038 4.89617 35 10.9375 35C13.9645 35 16.701 33.7695 18.6812 31.7849L31.8812 18.5938L31.8702 18.5828C33.8018 16.6113 35 13.9152 35 10.9375ZM17.9069 31.0127C16.0453 32.8787 13.5696 33.9062 10.9375 33.9062C5.50977 33.9062 1.09375 29.4908 1.09375 24.0625C1.09375 21.4304 2.12133 18.9547 3.98891 17.092L10.1522 10.9255L24.0756 24.8489L17.9069 31.0127ZM24.8489 24.0751L10.9249 10.1511C10.9249 10.1511 17.1407 3.95117 17.1823 3.9107C19.0373 2.09453 21.4802 1.09375 24.0625 1.09375C29.4902 1.09375 33.9062 5.50922 33.9062 10.9375C33.9062 13.5193 32.906 15.9627 31.0893 17.8177C31.0488 17.8588 24.8489 24.0751 24.8489 24.0751Z" fill="white"/>
<path d="M24.0625 3.08125C23.6496 3.08125 23.3156 3.41525 23.3156 3.82812C23.3156 4.241 23.6496 4.575 24.0625 4.575C27.5762 4.575 30.425 7.42382 30.425 10.9375C30.425 11.3504 30.759 11.6844 31.1719 11.6844C31.5848 11.6844 31.9187 11.3504 31.9187 10.9375C31.9187 6.59861 28.4014 3.08125 24.0625 3.08125Z" fill="white" stroke="white" stroke-width="0.4"/>
</g>
<defs>
<clipPath id="clip0_28_68">
<rect width="35" height="35" fill="white"/>
</clipPath>
</defs>
</svg>
